<svg width="186" height="52" viewBox="0 0 186 52" fill="none" xmlns="http://www.w3.org/2000/svg">
<path d="M4.99143 0.48093L5.40738 0.61822C4.50615 3.98189 6.44726 8.64984 9.70555 8.64984C16.4994 8.64984 21.9761 -0.0682422 31.6817 0.000403264C39.3075 0.000403264 40.9713 6.72775 40.9713 9.95412V14.828H30.4338L30.3645 10.6406C30.3645 5.83534 27.7995 4.737 24.8878 4.737C15.1823 4.737 11.508 18.329 6.30861 18.329C3.39694 18.329 2.63436 14.3475 2.63436 11.2584C2.63436 6.6591 3.8129 2.40303 4.99143 0.48093ZM12.3399 24.9877L18.9258 10.5719H28.0075C25.3731 15.5831 23.1547 20.457 21.1442 24.9877H21.9068C30.0179 24.9877 36.4652 26.9784 36.4652 37.4813L26.0663 37.344C26.1357 27.7335 25.8584 26.086 21.9761 26.086H20.5896C14.0037 40.7077 9.2896 51.4852 0 51.4852L0.0693254 40.2272V24.9877H12.3399ZM0.623928 31.6464V40.2272C4.22885 40.0212 7.41782 35.9024 9.42825 31.3718L11.7853 26.1547C2.84234 26.4979 0.623928 27.5962 0.623928 31.6464Z" fill="#CAE6D8"/>
<path d="M38.568 51.1419L51.6821 9.95412H61.8787L74.9927 51.1419H67.8291L55.9282 14.1873H57.4881L45.7316 51.1419H38.568ZM45.8761 42.2179V35.7823H67.7136V42.2179H45.8761Z" fill="#CAE6D8"/>
<path d="M94.3673 52C90.2078 52 86.6452 51.1038 83.6796 49.3114C80.714 47.4999 78.4321 44.9828 76.8337 41.7603C75.2546 38.5377 74.4651 34.8003 74.4651 30.548C74.4651 26.2958 75.2546 22.5584 76.8337 19.3358C78.4321 16.1132 80.714 13.6057 83.6796 11.8133C86.6452 10.0018 90.2078 9.09605 94.3673 9.09605C99.1623 9.09605 103.158 10.2878 106.355 12.6714C109.551 15.0359 111.795 18.2298 113.085 22.2533L106.066 24.1696C105.257 21.481 103.88 19.3835 101.935 17.8771C99.9903 16.3516 97.4677 15.5888 94.3673 15.5888C91.575 15.5888 89.2449 16.2086 87.377 17.448C85.5283 18.6875 84.1321 20.4322 83.1886 22.6823C82.2642 24.9133 81.7924 27.5352 81.7732 30.548C81.7732 33.5608 82.2353 36.1923 83.1597 38.4423C84.1033 40.6734 85.509 42.4086 87.377 43.648C89.2449 44.8875 91.575 45.5072 94.3673 45.5072C97.4677 45.5072 99.9903 44.7445 101.935 43.219C103.88 41.6935 105.257 39.596 106.066 36.9264L113.085 38.8428C111.795 42.8662 109.551 46.0697 106.355 48.4533C103.158 50.8178 99.1623 52 94.3673 52Z" fill="#CAE6D8"/>
<path d="M117.694 51.1419V9.95412H124.656V51.1419H117.694Z" fill="#CAE6D8"/>
<path d="M131.575 51.1419V9.95412H138.536V44.6777H156.908V51.1419H131.575Z" fill="#CAE6D8"/>
<path d="M145.625 51.1419V9.95412H172.489V16.4183H152.587V26.5723H165.202V33.0365H152.587V44.6777H172.489V51.1419H145.625Z" fill="#CAE6D8"/>
<path d="M179.53 44.7349H186V51.1419H179.53V44.7349Z" fill="#CAE6D8"/>
</svg>
