<svg width="20" height="19" viewBox="0 0 20 19" fill="none" xmlns="http://www.w3.org/2000/svg">
<path d="M19.5775 8.34667C19.1717 7.80167 18.5492 7.48833 17.8692 7.48833H17.5V5.8325C17.5 3.535 15.6308 1.66583 13.3333 1.66583H9.12C8.99167 1.66583 8.86167 1.635 8.7475 1.57833L6.11833 0.263334C5.77333 0.0908337 5.38667 3.48214e-07 5 3.48214e-07H3.33333C1.495 -0.000832985 0 1.49417 0 3.3325V14.1658C0 16.4633 1.86917 18.3325 4.16667 18.3325H14.6317C16.4867 18.3325 18.09 17.1392 18.6333 15.3267L19.91 10.23C20.105 9.57833 19.9833 8.8925 19.5775 8.34667ZM1.66667 14.1658V3.3325C1.66667 2.41333 2.41417 1.66583 3.33333 1.66583H5C5.12833 1.66583 5.25833 1.69667 5.3725 1.75333L8.00167 3.06833C8.34667 3.24083 8.73333 3.33167 9.12 3.33167H13.3333C14.7117 3.33167 15.8333 4.45333 15.8333 5.83167V7.4875H7.17917C5.7625 7.4875 4.4975 8.38667 4.02167 9.75417L2.19667 15.7025C1.865 15.2783 1.66667 14.745 1.66667 14.1658ZM18.3033 9.78833L17.0267 14.8842C16.7067 15.95 15.7442 16.6658 14.6317 16.6658H4.16667C3.99333 16.6658 3.82417 16.6483 3.66083 16.6142L5.60583 10.2733C5.83833 9.60417 6.47167 9.155 7.18 9.155H17.87C18.0717 9.155 18.1892 9.27167 18.2408 9.34167C18.2925 9.41167 18.3708 9.5575 18.3033 9.78833Z" fill="#1E1E1E"/>
</svg>
