<svg width="32" height="20" viewBox="0 0 32 20" fill="none" xmlns="http://www.w3.org/2000/svg">
<path d="M2.38855 7.68622C2.34466 7.68622 2.30076 7.64232 2.34466 7.59843L2.65193 7.15947C2.69582 7.11557 2.73972 7.07168 2.82751 7.07168H8.35838C8.40227 7.07168 8.44617 7.11557 8.40227 7.15947L8.1389 7.55453C8.095 7.59843 8.0511 7.64232 7.96331 7.64232L2.38855 7.68622ZM0.0620781 9.09088C0.0181823 9.09088 -0.0257136 9.04699 0.0181822 9.00309L0.325453 8.56414C0.369349 8.52024 0.413244 8.47634 0.501036 8.47634H7.56825C7.61215 8.47634 7.65604 8.52024 7.65604 8.56414L7.52436 9.00309C7.52436 9.04699 7.43656 9.09088 7.39267 9.09088H0.0620781ZM3.79322 10.5394C3.74932 10.5394 3.70542 10.4955 3.74932 10.4517L3.9688 10.0566C4.0127 10.0127 4.05659 9.9688 4.14438 9.9688H7.21708C7.26098 9.9688 7.30488 10.0127 7.30488 10.0566L7.26098 10.4078C7.26098 10.4517 7.21709 10.4955 7.17319 10.4955L3.79322 10.5394ZM19.8591 7.37895L17.2692 8.03739C17.0497 8.08128 17.0058 8.12518 16.8303 7.8618C16.6108 7.59843 16.4352 7.42284 16.084 7.29116C15.1183 6.8083 14.1526 6.93999 13.2747 7.51064C12.2212 8.16907 11.6945 9.17868 11.6945 10.4517C11.6945 11.6807 12.5724 12.6903 13.8014 12.8659C14.8549 12.9976 15.7329 12.6464 16.4352 11.8563C16.5669 11.6807 16.6986 11.5052 16.8741 11.2857H13.8892C13.582 11.2857 13.4942 11.0662 13.582 10.8028C13.8014 10.32 14.1526 9.52984 14.3721 9.13478C14.416 9.04699 14.5477 8.8714 14.7672 8.8714H20.3858C20.3419 9.31036 20.3419 9.70542 20.298 10.1444C20.1224 11.2418 19.7274 12.2953 19.025 13.1732C17.9276 14.6217 16.4791 15.5436 14.6355 15.8069C13.0991 16.0264 11.6945 15.7191 10.4654 14.7973C9.32408 13.9194 8.66565 12.7781 8.49006 11.3735C8.27058 9.70542 8.79733 8.16907 9.80693 6.8522C10.9043 5.40364 12.3529 4.48183 14.1526 4.17456C15.6012 3.91119 17.0058 4.08677 18.2349 4.92079C19.0689 5.44754 19.6396 6.19376 20.0346 7.11557C20.0785 7.29116 20.0346 7.33505 19.8591 7.37895Z" fill="#CAE6D8"/>
<path d="M24.9513 15.9386C23.5466 15.8947 22.2736 15.4997 21.1763 14.5779C20.2544 13.7877 19.6838 12.7781 19.5082 11.5929C19.2448 9.83711 19.7277 8.30076 20.7812 6.93999C21.9225 5.44754 23.2832 4.70131 25.1269 4.35014C26.7071 4.08677 28.1996 4.21846 29.5164 5.14027C30.7455 5.97429 31.4918 7.11558 31.7112 8.60803C31.9746 10.715 31.3601 12.3831 29.9554 13.8316C28.9458 14.8851 27.6728 15.4997 26.2682 15.8069C25.7853 15.8947 25.3463 15.8947 24.9513 15.9386ZM28.6385 9.70543C28.6385 9.48595 28.6385 9.35426 28.5946 9.17868C28.3313 7.64233 26.9266 6.76441 25.4341 7.11558C23.9856 7.42285 23.0638 8.34466 22.7126 9.79322C22.4492 10.9784 23.0199 12.2075 24.1173 12.7342C24.9513 13.0854 25.8292 13.0415 26.6193 12.6464C27.8923 12.0319 28.5507 11.0223 28.6385 9.70543Z" fill="#CAE6D8"/>
</svg>
