<svg width="337" height="80" viewBox="0 0 337 80" fill="none" xmlns="http://www.w3.org/2000/svg">
<path d="M45.1197 78.6125H30.0423L29.7047 58.7348C30.6049 58.7348 31.6175 58.7348 32.1801 58.7348C36.2308 59.0717 41.069 77.6018 44.8946 77.6018C50.2955 77.6018 51.0831 72.4358 51.0831 57.9486C51.0831 43.7984 49.8454 39.7555 44.8946 39.7555C38.5936 39.7555 32.8552 39.7555 27.7919 39.8678V46.7183C27.4544 68.2806 12.4895 78.7248 0 78.7248L0.112518 59.5209V38.0709H11.4768V0H27.7919V38.0709H44.7821C46.6949 38.0709 48.6077 38.2955 50.5205 38.6324V0H66.8356V39.0816H52.6584C60.5346 41.3277 66.9482 47.5044 66.9482 60.8685C66.9482 77.7141 56.8215 79.0617 45.1197 78.6125ZM11.4768 45.9322V41.2154C4.83827 42.4508 1.2377 44.5845 1.2377 48.2905V59.5209C9.00143 59.4086 11.4768 53.3442 11.4768 45.9322Z" fill="#1E1E1E"/>
<path d="M77.3058 78.6125V12.0129H89.9098V78.6125H77.3058Z" fill="#1E1E1E"/>
<path d="M100.095 78.6125V12.0129H128.268C128.917 12.0129 129.782 12.0437 130.863 12.1054C131.975 12.1362 132.964 12.2287 133.829 12.3829C137.814 12.9995 141.073 14.3099 143.606 16.3141C146.17 18.3182 148.055 20.8466 149.259 23.899C150.464 26.9207 151.067 30.2969 151.067 34.0277C151.067 39.6085 149.676 44.3877 146.896 48.3652C144.116 52.3118 139.76 54.7476 133.829 55.6726L128.268 56.0426H112.699V78.6125H100.095ZM137.721 78.6125L124.561 51.5102L137.536 49.0127L151.993 78.6125H137.721ZM112.699 44.2952H127.712C128.361 44.2952 129.071 44.2644 129.844 44.2027C130.616 44.141 131.327 44.0177 131.975 43.8327C133.674 43.3702 134.987 42.5994 135.914 41.5202C136.841 40.4102 137.474 39.1923 137.814 37.8665C138.185 36.5098 138.37 35.2302 138.37 34.0277C138.37 32.8253 138.185 31.5611 137.814 30.2353C137.474 28.8786 136.841 27.6607 135.914 26.5815C134.987 25.4715 133.674 24.6853 131.975 24.2228C131.327 24.0378 130.616 23.9145 129.844 23.8528C129.071 23.7911 128.361 23.7603 127.712 23.7603H112.699V44.2952Z" fill="#1E1E1E"/>
<path d="M158.473 78.6125V12.0129H202.031V23.7603H171.077V38.0052H196.471V49.7527H171.077V66.8651H202.031V78.6125H158.473Z" fill="#1E1E1E"/>
<path d="M251.431 80C246.056 80 241.329 78.9208 237.252 76.7625C233.174 74.5734 229.992 71.5055 227.706 67.5588C225.42 63.6122 224.277 58.9718 224.277 53.6376V12.1054L237.066 12.0129V53.5451C237.066 55.7343 237.437 57.723 238.178 59.5114C238.92 61.2997 239.939 62.8413 241.237 64.1363C242.565 65.4313 244.094 66.4334 245.824 67.1426C247.585 67.8209 249.454 68.1601 251.431 68.1601C253.47 68.1601 255.354 67.8055 257.084 67.0963C258.845 66.3872 260.374 65.3851 261.672 64.0901C262.969 62.7951 263.973 61.2534 264.684 59.4651C265.425 57.6768 265.796 55.7035 265.796 53.5451V12.0129H278.585V53.6376C278.585 58.9718 277.442 63.6122 275.156 67.5588C272.87 71.5055 269.688 74.5734 265.61 76.7625C261.533 78.9208 256.806 80 251.431 80Z" fill="#1E1E1E"/>
<path d="M310.217 80C305.274 80 300.81 79.1367 296.825 77.41C292.871 75.6525 289.612 73.155 287.048 69.9175C284.514 66.6492 282.908 62.7643 282.228 58.2626L295.388 56.3201C296.315 60.1434 298.231 63.088 301.134 65.1538C304.038 67.2197 307.344 68.2526 311.051 68.2526C313.12 68.2526 315.128 67.9288 317.075 67.2813C319.021 66.6338 320.612 65.678 321.847 64.4138C323.114 63.1497 323.747 61.5926 323.747 59.7426C323.747 59.0643 323.639 58.4168 323.423 57.8001C323.238 57.1526 322.913 56.5514 322.45 55.9964C321.986 55.4414 321.322 54.9172 320.457 54.4239C319.623 53.9306 318.557 53.4835 317.26 53.0826L299.93 47.9952C298.632 47.6252 297.118 47.101 295.388 46.4227C293.689 45.7443 292.037 44.7731 290.43 43.5089C288.824 42.2448 287.48 40.5798 286.399 38.514C285.349 36.4173 284.823 33.7811 284.823 30.6053C284.823 26.1345 285.951 22.4191 288.206 19.4591C290.461 16.4991 293.473 14.2945 297.242 12.8454C301.011 11.3962 305.181 10.687 309.753 10.7179C314.356 10.7795 318.465 11.5658 322.079 13.0766C325.693 14.5874 328.721 16.792 331.161 19.6903C333.602 22.5578 335.363 26.0728 336.444 30.2353L322.821 32.5477C322.326 30.3894 321.415 28.5703 320.087 27.0903C318.758 25.6103 317.167 24.4849 315.314 23.7141C313.491 22.9432 311.576 22.527 309.568 22.4653C307.591 22.4036 305.722 22.6811 303.961 23.2978C302.231 23.8836 300.81 24.747 299.698 25.8878C298.617 27.0286 298.076 28.3853 298.076 29.9578C298.076 31.4069 298.524 32.594 299.42 33.519C300.316 34.4132 301.443 35.1377 302.803 35.6927C304.162 36.2477 305.552 36.7102 306.973 37.0802L318.557 40.2252C320.287 40.6877 322.203 41.3044 324.303 42.0752C326.404 42.8152 328.412 43.8635 330.327 45.2202C332.274 46.546 333.864 48.3035 335.1 50.4927C336.367 52.6818 337 55.4568 337 58.8176C337 62.3943 336.243 65.5238 334.729 68.2063C333.247 70.858 331.239 73.0625 328.705 74.82C326.172 76.5467 323.299 77.8417 320.087 78.705C316.905 79.5683 313.615 80 310.217 80Z" fill="#1E1E1E"/>
</svg>
