<svg width="20" height="20" viewBox="0 0 20 20" fill="none" xmlns="http://www.w3.org/2000/svg">
<path d="M0 1.43266C0 0.641875 0.662031 0 1.47813 0H18.5219C19.3383 0 20 0.641875 20 1.43266V18.5676C20 19.3586 19.3383 20 18.5219 20H1.47813C0.662109 20 0 19.3587 0 18.5678V1.43242V1.43266Z" fill="#CAE6D8" fill-opacity="0.33"/>
<path d="M6.07937 16.7374V7.73329H3.08656V16.7374H6.07969H6.07937ZM4.58359 6.50415C5.62703 6.50415 6.27664 5.81274 6.27664 4.94868C6.25711 4.06493 5.62703 3.39282 4.60344 3.39282C3.57914 3.39282 2.91016 4.06493 2.91016 4.9486C2.91016 5.81267 3.55953 6.50407 4.56398 6.50407H4.58336L4.58359 6.50415ZM7.73594 16.7374H10.7285V11.7096C10.7285 11.4409 10.748 11.1714 10.8271 10.9795C11.0434 10.4416 11.5358 9.88478 12.3627 9.88478C13.4454 9.88478 13.8787 10.7104 13.8787 11.9209V16.7374H16.8712V11.5747C16.8712 8.80915 15.395 7.5222 13.426 7.5222C11.8117 7.5222 11.1027 8.42446 10.7088 9.03899H10.7287V7.7336H7.73609C7.77516 8.57829 7.73586 16.7377 7.73586 16.7377L7.73594 16.7374Z" fill="#CAE6D8"/>
</svg>
