
<svg width="20" height="20" viewBox="0 0 20 20" fill="currentColor" xmlns="http://www.w3.org/2000/svg">
<path d="M19.3858 11.5708C20.2033 12.3892 20.2033 13.7217 19.3858 14.5392L14.9108 19.0142C14.255 19.67 13.3933 19.9975 12.5317 19.9975C11.67 19.9975 10.8092 19.67 10.1533 19.0142C9.5175 18.3792 9.1675 17.5342 9.1675 16.635C9.1675 15.7358 9.5175 14.8917 10.1533 14.2558L13.6642 10.7458C13.99 10.42 14.5167 10.42 14.8425 10.7458C15.1683 11.0717 15.1683 11.5983 14.8425 11.9242L11.3317 15.4342C11.0108 15.755 10.8342 16.1817 10.8342 16.635C10.8342 17.0883 11.0108 17.515 11.3317 17.8358C11.995 18.4975 13.0717 18.4967 13.7333 17.8358L18.2083 13.3608C18.3767 13.1925 18.3767 12.9175 18.2083 12.7492C18.0458 12.5867 17.7608 12.5858 17.5967 12.7492L13.9242 16.4217C13.5983 16.7475 13.0717 16.7475 12.7458 16.4217C12.42 16.0958 12.42 15.5692 12.7458 15.2433L16.4183 11.5708C17.2108 10.7792 18.5917 10.7775 19.3858 11.5708ZM20 4.16667V8.33333C20 8.79333 19.6275 9.16667 19.1667 9.16667C18.7058 9.16667 18.3333 8.79333 18.3333 8.33333V4.16667C18.3333 3.9325 18.2908 3.71083 18.23 3.49583L12.9458 8.78083C12.1583 9.5675 11.1117 10.0008 9.99917 10.0008C8.88667 10.0008 7.84 9.5675 7.0525 8.78083L1.77 3.49583C1.70917 3.71083 1.66667 3.93333 1.66667 4.16667V11.6667C1.66667 13.045 2.78833 14.1667 4.16667 14.1667H6.66667C7.1275 14.1667 7.5 14.54 7.5 15C7.5 15.46 7.1275 15.8333 6.66667 15.8333H4.16667C1.86917 15.8333 0 13.9642 0 11.6667V4.16667C0 1.86917 1.86917 0 4.16667 0H15.8333C18.1308 0 20 1.86917 20 4.16667ZM17.2542 2.11417C16.85 1.83333 16.3617 1.66667 15.8333 1.66667H4.16667C3.63833 1.66667 3.15 1.83333 2.74583 2.11417L8.2325 7.60167C8.705 8.07333 9.3525 8.30917 10.0008 8.31C10.6483 8.31 11.2967 8.07417 11.7692 7.60167L17.2558 2.11417H17.2542Z" fill="#1e1e1e"/>
</svg>
