<svg width="17" height="20" viewBox="0 0 17 20" fill="none" xmlns="http://www.w3.org/2000/svg">
<path d="M15.2212 2.6723C13.407 0.0237066 9.82366 -0.761356 7.23309 0.922537L2.68363 3.88083C2.37757 4.07709 2.09205 4.30529 1.83228 4.56177C1.57218 4.81824 1.33913 5.10167 1.13672 5.40737C0.934314 5.71308 0.763522 6.03942 0.626954 6.38105C0.490717 6.72284 0.38957 7.07813 0.325134 7.44122C0.271354 7.7456 0.242019 8.0543 0.238108 8.36367C0.233871 8.67337 0.255057 8.98274 0.301014 9.28845C0.346972 9.59449 0.4177 9.8962 0.512223 10.1903C0.606745 10.4843 0.725061 10.7698 0.865867 11.0439C0.769003 11.1941 0.679583 11.3492 0.597945 11.5086C0.516134 11.6679 0.442472 11.8316 0.376958 11.9986C0.311444 12.1656 0.254405 12.3359 0.20584 12.5089C0.157275 12.6818 0.11751 12.8572 0.0862201 13.0341C-0.0437963 13.7783 -0.026619 14.5416 0.136741 15.2789C0.218226 15.6465 0.335238 16.0051 0.486474 16.349C0.63771 16.693 0.821865 17.021 1.03699 17.3277C2.85116 19.9763 6.43422 20.7613 9.02478 19.0774L13.5742 16.1315C13.8803 15.9349 14.1652 15.7063 14.4249 15.4495C14.6847 15.1929 14.9177 14.9095 15.1202 14.6039C15.3226 14.2985 15.4934 13.9722 15.6299 13.6306C15.7665 13.2893 15.8679 12.934 15.9327 12.5711C15.9865 12.2667 16.0155 11.9583 16.0194 11.649C16.0234 11.3396 16.0022 11.0302 15.9559 10.7245C15.9099 10.4188 15.8392 10.1174 15.7443 9.82335C15.6495 9.52962 15.5312 9.2442 15.3904 8.9701C15.4872 8.82007 15.5768 8.66472 15.6586 8.50538C15.7401 8.34604 15.8141 8.18237 15.8796 8.01538C15.9451 7.84839 16.0025 7.67807 16.0514 7.50509C16.0999 7.33244 16.1404 7.15713 16.172 6.98016C16.2365 6.60892 16.2645 6.23202 16.2561 5.85513C16.2476 5.47823 16.2023 5.10333 16.1208 4.73541C16.0393 4.36783 15.9223 4.00923 15.7711 3.66527C15.62 3.32125 15.4358 2.99341 15.2212 2.6866" fill="#CAE6D8" fill-opacity="0.33"/>
<path d="M6.78751 17.5838C6.43145 17.6782 6.06335 17.7166 5.69594 17.6976C5.32861 17.6783 4.96616 17.6025 4.62132 17.4717C4.27647 17.3412 3.95312 17.1578 3.66241 16.9278C3.37194 16.6977 3.11751 16.4238 2.90786 16.1155C2.77846 15.9309 2.66764 15.734 2.57703 15.527C2.48615 15.3203 2.41573 15.1047 2.3668 14.8837C2.31823 14.6625 2.29085 14.4369 2.28597 14.2104C2.28108 13.9839 2.29835 13.7573 2.33746 13.5341C2.34366 13.4979 2.35083 13.4616 2.35865 13.4257C2.36615 13.3894 2.37462 13.3535 2.38375 13.3179C2.39255 13.282 2.40233 13.2464 2.41276 13.2108C2.42286 13.1755 2.43394 13.1403 2.44535 13.1053L2.53107 12.8382L2.76477 13.0162C2.89873 13.116 3.03693 13.2101 3.17871 13.2979C3.3205 13.3861 3.46587 13.4679 3.61449 13.5431C3.7628 13.6186 3.91468 13.6878 4.06885 13.75C4.22302 13.8125 4.3798 13.8681 4.53886 13.917L4.71324 13.9686L4.69759 14.1465C4.68918 14.2677 4.70154 14.3893 4.7341 14.5061C4.75007 14.5647 4.77125 14.6212 4.797 14.6758C4.82275 14.7303 4.85306 14.7826 4.88761 14.8318C4.95092 14.9247 5.02775 15.0071 5.11544 15.0763C5.2028 15.1455 5.30025 15.2007 5.40423 15.24C5.5082 15.2792 5.61707 15.3018 5.72788 15.3075C5.83838 15.3135 5.9492 15.3018 6.05643 15.2732C6.0812 15.2666 6.10532 15.2589 6.12944 15.2503C6.15356 15.2416 6.17736 15.2323 6.2005 15.2217C6.22396 15.2114 6.24678 15.2 6.2696 15.1877C6.29209 15.1758 6.31392 15.1628 6.33544 15.1488L10.8781 12.1902C10.9337 12.1546 10.9856 12.1131 11.0329 12.0664C11.0801 12.0195 11.1222 11.968 11.159 11.9124C11.1958 11.8569 11.2265 11.7973 11.2513 11.7351C11.2757 11.6729 11.294 11.6084 11.3057 11.5425C11.3171 11.475 11.322 11.4068 11.3204 11.3383C11.3187 11.2701 11.3102 11.2022 11.2953 11.1353C11.2806 11.0688 11.2591 11.004 11.2314 10.9414C11.204 10.8792 11.1701 10.82 11.131 10.7644C11.0677 10.6716 10.9912 10.5895 10.9035 10.5203C10.8158 10.4511 10.7183 10.3959 10.6147 10.3566C10.5108 10.3173 10.4017 10.2945 10.291 10.2887C10.1802 10.2831 10.0694 10.2947 9.96216 10.323C9.93772 10.3297 9.91327 10.3373 9.88915 10.346C9.86503 10.3546 9.84157 10.3639 9.8181 10.3742C9.79463 10.3849 9.77182 10.3962 9.74933 10.4085C9.72684 10.4205 9.70467 10.4338 9.68316 10.4478L7.93873 11.5781C7.86768 11.624 7.79467 11.6673 7.72035 11.7078C7.64571 11.7481 7.57009 11.7857 7.49285 11.8203C7.4156 11.8549 7.33705 11.8865 7.25752 11.9148C7.17799 11.9434 7.09748 11.9686 7.016 11.9909C6.6604 12.0847 6.29306 12.1227 5.92638 12.1034C5.5597 12.0841 5.19823 12.0079 4.85404 11.8778C4.50985 11.7474 4.18717 11.5641 3.89708 11.3346C3.607 11.1051 3.35276 10.832 3.14319 10.5243C3.01444 10.3396 2.90395 10.1424 2.81366 9.93547C2.72305 9.72856 2.65297 9.513 2.60441 9.29212C2.55584 9.0709 2.52912 8.84536 2.52455 8.61882C2.51966 8.39262 2.53694 8.16608 2.57638 7.94321C2.65344 7.50439 2.81928 7.08678 3.06333 6.71704C3.30755 6.3473 3.62472 6.03368 3.99454 5.79626L8.55117 2.83797C8.6219 2.79206 8.69426 2.74882 8.76825 2.70823C8.84224 2.66798 8.91785 2.63039 8.99445 2.5958C9.07121 2.56119 9.14928 2.52967 9.22847 2.50132C9.30735 2.47271 9.38753 2.4471 9.46869 2.42481C9.82462 2.33067 10.1926 2.29208 10.5596 2.31105C10.9269 2.33034 11.2891 2.40618 11.6339 2.53692C11.9788 2.66732 12.3018 2.85094 12.5925 3.08081C12.8829 3.31105 13.1372 3.58508 13.3467 3.89348C13.4758 4.07777 13.5869 4.2747 13.6779 4.48161C13.7688 4.68852 13.8392 4.90375 13.8884 5.12496C13.9373 5.34618 13.9647 5.57172 13.9696 5.79825C13.9748 6.02479 13.9579 6.25133 13.9187 6.47454C13.9119 6.51113 13.9047 6.54772 13.8966 6.58398C13.8888 6.62024 13.8803 6.6565 13.8712 6.69243C13.8624 6.72869 13.8526 6.76461 13.8425 6.80021C13.8324 6.83613 13.8219 6.87173 13.8105 6.90699L13.7235 7.17411L13.4914 6.99614C13.3571 6.89535 13.2186 6.80087 13.0765 6.71205C12.9344 6.62357 12.7884 6.54107 12.6394 6.46489C12.3412 6.31307 12.031 6.1871 11.7121 6.08833L11.5374 6.03677L11.5534 5.8588C11.5583 5.79792 11.558 5.73671 11.5524 5.67617C11.5472 5.61563 11.5365 5.55542 11.5208 5.49654C11.5048 5.43799 11.4843 5.38044 11.4586 5.32555C11.4331 5.27033 11.4028 5.21777 11.3683 5.16787C11.3047 5.0767 11.2278 4.99594 11.1404 4.92836C11.0532 4.86048 10.9562 4.80663 10.853 4.76869C10.6455 4.69187 10.42 4.68154 10.2066 4.73908C10.1818 4.74574 10.1574 4.75339 10.1336 4.7617C10.1095 4.77035 10.0857 4.78 10.0622 4.79031C10.0391 4.80063 10.0159 4.81227 9.99345 4.82424C9.97096 4.83655 9.9488 4.84953 9.92729 4.8635L5.3762 7.8168C5.32079 7.85239 5.26896 7.89397 5.22203 7.94054C5.17509 7.98712 5.13272 8.03868 5.09589 8.0939C5.05937 8.14944 5.02846 8.20862 5.00365 8.27054C4.97888 8.33274 4.96062 8.39694 4.94889 8.46281C4.93748 8.53034 4.93259 8.59887 4.93422 8.66739C4.93813 8.80456 4.96836 8.93962 5.0232 9.06491C5.05086 9.12729 5.08437 9.18678 5.12327 9.24255C5.18617 9.33436 5.26244 9.4162 5.34947 9.48472C5.43632 9.55357 5.53292 9.60853 5.63597 9.64772C5.84318 9.72634 6.06889 9.73899 6.28329 9.68398C6.30773 9.677 6.33218 9.66935 6.3563 9.6607C6.38009 9.65205 6.40388 9.6424 6.42735 9.63209C6.45071 9.62172 6.47365 9.6104 6.49612 9.59816C6.51861 9.58618 6.54078 9.57321 6.56229 9.55924L8.30672 8.43088C8.3781 8.3843 8.45078 8.34039 8.52542 8.29981C8.59974 8.25889 8.67568 8.2213 8.75325 8.18638C8.83057 8.15176 8.90918 8.12025 8.98891 8.0919C9.06876 8.06329 9.1496 8.03801 9.23141 8.01606C9.58733 7.92158 9.95499 7.88299 10.3223 7.90162C10.6897 7.92058 11.0518 7.99643 11.3966 8.12683C11.7411 8.25723 12.0645 8.44052 12.3549 8.67072C12.6456 8.90058 12.8999 9.17436 13.1094 9.48273C13.2385 9.66735 13.3493 9.86428 13.4403 10.0712C13.5312 10.278 13.6017 10.4935 13.6508 10.7145C13.6997 10.9354 13.7271 11.161 13.7323 11.3875C13.7375 11.6144 13.7202 11.8409 13.6815 12.0638C13.643 12.2826 13.5824 12.4968 13.5006 12.7028C13.4188 12.9089 13.3161 13.1057 13.1942 13.2899C13.0726 13.4742 12.9324 13.6452 12.776 13.7999C12.6195 13.9546 12.4478 14.0923 12.2633 14.2107L7.71188 17.169C7.6405 17.2153 7.56749 17.2588 7.49317 17.2994C7.41853 17.34 7.34259 17.3776 7.26502 17.4122C7.18777 17.4471 7.10922 17.4787 7.02936 17.5073C6.94983 17.5359 6.869 17.5616 6.78751 17.5838Z" fill="#CAE6D8"/>
</svg>
