<svg width="20" height="20" viewBox="0 0 20 20" fill="none" xmlns="http://www.w3.org/2000/svg">
<g clip-path="url(#clip0_188_348)">
<path d="M0 10V0H20V20H0" fill="#CAE6D8" fill-opacity="0.33"/>
<path d="M4.38672 10.035V10.85H6.98672V18.25H8.83172V10.85H11.4317V10.05C11.4317 9.59999 11.4317 9.23499 11.4117 9.22499C11.4117 9.20999 9.82672 9.20499 7.90172 9.20499L4.40172 9.21999V10.04L4.38672 10.035ZM16.0717 9.19999C16.5817 9.31999 16.9717 9.54999 17.3217 9.91499C17.5067 10.115 17.7817 10.465 17.8017 10.555C17.8017 10.585 16.9367 11.17 16.4117 11.495C16.3917 11.51 16.3117 11.425 16.2317 11.295C15.9717 10.925 15.7067 10.765 15.2917 10.735C14.6917 10.695 14.2917 11.01 14.2917 11.535C14.2917 11.695 14.3217 11.785 14.3817 11.915C14.5167 12.19 14.7667 12.355 15.5417 12.695C16.9717 13.31 17.5917 13.715 17.9667 14.295C18.3917 14.945 18.4867 15.965 18.2017 16.73C17.8817 17.565 17.1017 18.13 15.9867 18.315C15.6367 18.375 14.8367 18.365 14.4617 18.3C13.6617 18.15 12.8967 17.75 12.4267 17.235C12.2417 17.035 11.8867 16.5 11.9067 16.465L12.0967 16.345L12.8467 15.91L13.4117 15.58L13.5417 15.755C13.7067 16.015 14.0767 16.365 14.2917 16.485C14.9417 16.82 15.8117 16.775 16.2417 16.385C16.4267 16.215 16.5067 16.035 16.5067 15.785C16.5067 15.555 16.4717 15.45 16.3567 15.275C16.1967 15.055 15.8767 14.875 14.9767 14.475C13.9417 14.035 13.5017 13.755 13.0917 13.325C12.8567 13.065 12.6417 12.66 12.5417 12.325C12.4667 12.035 12.4417 11.325 12.5117 11.04C12.7267 10.04 13.4817 9.33999 14.5617 9.13999C14.9117 9.06999 15.7367 9.09999 16.0817 9.18999L16.0717 9.19999Z" fill="#CAE6D8"/>
</g>
<defs>
<clipPath id="clip0_188_348">
<rect width="20" height="20" fill="white"/>
</clipPath>
</defs>
</svg>
