<svg width="1495" height="371" viewBox="0 0 1495 371" fill="none" xmlns="http://www.w3.org/2000/svg">
<path d="M290.464 207.185C251.844 257.835 295.582 281.068 311.868 281.997C529.165 293.15 504.969 132.838 464.487 97.9877C443.083 79.4008 408.651 89.1589 388.643 117.969L386.316 117.039L461.696 0.871413C583.14 48.7325 469.14 346.122 354.21 345.193C296.048 344.728 250.913 268.057 276.505 186.275L287.207 152.354C261.615 220.661 214.619 313.13 122.489 336.364L71.3059 349.375C67.5835 355.416 77.3549 367.962 69.4447 370.75C62.9305 372.608 57.8121 363.78 62.4652 355.416L113.183 267.128L139.24 263.875C170.881 216.944 197.868 171.406 197.868 110.069C197.868 29.681 128.073 8.30614 66.1876 48.7325C3.83695 89.1589 7.55937 188.134 92.7099 185.346C126.677 184.417 167.158 140.737 185.771 107.746L188.562 110.534C171.346 138.879 129.469 187.205 101.085 210.438C63.8611 240.642 -3.1426 230.884 0.114522 153.284C2.44104 100.776 31.2899 67.3194 75.959 35.7217C128.538 -1.91663 258.358 -31.6556 258.358 64.996C258.358 141.202 195.542 202.074 146.22 262.946C222.995 251.329 272.782 212.761 306.284 80.7949L312.333 80.3302V80.7949L388.178 78.9362L290.464 207.185Z" fill="#CAE6D8"/>
<path d="M651.564 352.344C623.892 352.344 599.999 346.331 579.885 334.305C559.899 322.278 544.462 305.454 533.572 283.832C522.81 262.211 517.43 237.071 517.43 208.412C517.43 179.754 522.81 154.614 533.572 132.992C544.462 111.37 559.899 94.546 579.885 82.5197C599.999 70.4934 623.892 64.4803 651.564 64.4803C679.237 64.4803 703.066 70.4934 723.052 82.5197C743.166 94.546 758.603 111.37 769.365 132.992C780.254 154.614 785.699 179.754 785.699 208.412C785.699 237.071 780.254 262.211 769.365 283.832C758.603 305.454 743.166 322.278 723.052 334.305C703.066 346.331 679.237 352.344 651.564 352.344ZM651.564 303.215C669.116 303.471 683.721 299.697 695.379 291.893C707.038 284.088 715.749 273.022 721.514 258.692C727.408 244.363 730.354 227.603 730.354 208.412C730.354 189.221 727.408 172.589 721.514 158.516C715.749 144.442 707.038 133.504 695.379 125.699C683.721 117.895 669.116 113.865 651.564 113.609C634.013 113.353 619.408 117.127 607.75 124.932C596.091 132.736 587.316 143.803 581.422 158.132C575.657 172.461 572.775 189.221 572.775 208.412C572.775 227.603 575.657 244.235 581.422 258.309C587.316 272.382 596.091 283.321 607.75 291.125C619.408 298.929 634.013 302.959 651.564 303.215Z" fill="#CAE6D8"/>
<path d="M808.688 346.587V70.2375H925.527C928.218 70.2375 931.805 70.3655 936.289 70.6213C940.901 70.7493 945.001 71.1331 948.588 71.7728C965.114 74.3316 978.63 79.769 989.136 88.0851C999.769 96.4011 1007.58 106.892 1012.58 119.558C1017.58 132.096 1020.08 146.106 1020.08 161.586C1020.08 184.743 1014.31 204.574 1002.78 221.078C991.25 237.454 973.185 247.562 948.588 251.4L925.527 252.935H860.958V346.587H808.688ZM964.73 346.587L910.154 234.128L963.961 223.765L1023.92 346.587H964.73ZM860.958 204.19H923.221C925.912 204.19 928.858 204.062 932.061 203.806C935.264 203.55 938.211 203.039 940.901 202.271C947.947 200.352 953.392 197.153 957.235 192.676C961.079 188.07 963.705 183.016 965.114 177.515C966.652 171.885 967.42 166.576 967.42 161.586C967.42 156.597 966.652 151.351 965.114 145.85C963.705 140.22 961.079 135.167 957.235 130.689C953.392 126.083 947.947 122.821 940.901 120.902C938.211 120.134 935.264 119.622 932.061 119.366C928.858 119.11 925.912 118.982 923.221 118.982H860.958V204.19Z" fill="#CAE6D8"/>
<path d="M1050.79 346.587V70.2375H1103.06V197.665L1208.37 70.2375H1272.17L1156.49 206.493L1279.47 346.587H1213.37L1103.06 220.694V346.587H1050.79Z" fill="#CAE6D8"/>
<path d="M1383.93 352.344C1363.43 352.344 1344.91 348.762 1328.39 341.597C1311.99 334.305 1298.47 323.941 1287.84 310.508C1277.33 296.946 1270.67 280.826 1267.85 262.147L1322.43 254.087C1326.27 269.951 1334.22 282.169 1346.26 290.741C1358.3 299.313 1372.01 303.599 1387.38 303.599C1395.97 303.599 1404.3 302.256 1412.37 299.569C1420.44 296.882 1427.04 292.916 1432.16 287.671C1437.41 282.425 1440.04 275.964 1440.04 268.288C1440.04 265.473 1439.59 262.786 1438.69 260.228C1437.93 257.541 1436.58 255.046 1434.66 252.743C1432.74 250.44 1429.98 248.265 1426.4 246.218C1422.94 244.171 1418.52 242.316 1413.14 240.653L1341.26 219.543C1335.88 218.008 1329.61 215.833 1322.43 213.018C1315.38 210.203 1308.53 206.173 1301.87 200.928C1295.21 195.682 1289.63 188.773 1285.15 180.201C1280.79 171.502 1278.62 160.563 1278.62 147.385C1278.62 128.834 1283.29 113.417 1292.64 101.135C1302 88.8527 1314.49 79.705 1330.12 73.6919C1345.75 67.6787 1363.04 64.7361 1382 64.8641C1401.09 65.1199 1418.13 68.3824 1433.12 74.6514C1448.11 80.9205 1460.67 90.0681 1470.79 102.094C1480.91 113.993 1488.21 128.578 1492.69 145.85L1436.2 155.445C1434.15 146.489 1430.37 138.941 1424.86 132.8C1419.35 126.659 1412.75 121.989 1405.06 118.791C1397.51 115.592 1389.56 113.865 1381.24 113.609C1373.04 113.353 1365.28 114.505 1357.98 117.063C1350.81 119.494 1344.91 123.077 1340.3 127.81C1335.82 132.544 1333.58 138.173 1333.58 144.698C1333.58 150.711 1335.43 155.637 1339.15 159.475C1342.87 163.186 1347.54 166.192 1353.18 168.495C1358.82 170.798 1364.58 172.717 1370.47 174.252L1418.52 187.302C1425.69 189.221 1433.63 191.78 1442.35 194.979C1451.06 198.049 1459.38 202.399 1467.33 208.028C1475.4 213.53 1482 220.822 1487.12 229.906C1492.37 238.99 1495 250.504 1495 264.45C1495 279.291 1491.86 292.276 1485.58 303.407C1479.43 314.41 1471.11 323.558 1460.6 330.85C1450.1 338.015 1438.18 343.388 1424.86 346.971C1411.66 350.553 1398.02 352.344 1383.93 352.344Z" fill="#CAE6D8"/>
</svg>
