<svg width="20" height="20" viewBox="0 0 20 20" fill="none" xmlns="http://www.w3.org/2000/svg">
<path d="M7.16756 8.23334L10.9926 4.40834C11.1487 4.25313 11.3599 4.16602 11.5801 4.16602C11.8002 4.16602 12.0114 4.25313 12.1676 4.40834C12.2457 4.48581 12.3077 4.57798 12.35 4.67953C12.3923 4.78108 12.4141 4.89 12.4141 5.00001C12.4141 5.11002 12.3923 5.21894 12.35 5.32049C12.3077 5.42204 12.2457 5.51421 12.1676 5.59168L8.33423 9.40834C8.25612 9.48581 8.19413 9.57798 8.15182 9.67953C8.10951 9.78108 8.08773 9.89 8.08773 10C8.08773 10.11 8.10951 10.2189 8.15182 10.3205C8.19413 10.422 8.25612 10.5142 8.33423 10.5917L12.1676 14.4083C12.3245 14.5642 12.4131 14.7759 12.4139 14.9971C12.4146 15.2182 12.3275 15.4306 12.1717 15.5875C12.0159 15.7444 11.8041 15.833 11.583 15.8338C11.3619 15.8346 11.1495 15.7475 10.9926 15.5917L7.16756 11.7667C6.6994 11.2979 6.43643 10.6625 6.43643 10C6.43643 9.33751 6.6994 8.70209 7.16756 8.23334Z" fill="#1E1E1E"/>
</svg>
