<svg width="20" height="20" viewBox="0 0 20 20" fill="none" xmlns="http://www.w3.org/2000/svg">
<path d="M4.47833 15.3792C4.265 15.3792 4.05167 15.2975 3.88917 15.135C3.56333 14.8092 3.56333 14.2825 3.88917 13.9567L7.25667 10.5892C7.58167 10.2642 7.58167 9.73583 7.25667 9.41083L3.88917 6.04333C3.56333 5.7175 3.56333 5.19083 3.88917 4.865C4.215 4.53917 4.74167 4.53917 5.0675 4.865L8.435 8.2325C9.41 9.2075 9.41 10.7925 8.435 11.7675L5.0675 15.135C4.905 15.2975 4.69167 15.3792 4.47833 15.3792ZM20 15.8333V4.16667C20 1.86917 18.1308 0 15.8333 0H4.16667C1.86917 0 0 1.86917 0 4.16667V15.8333C0 18.1308 1.86917 20 4.16667 20H15.8333C18.1308 20 20 18.1308 20 15.8333ZM15.8333 1.66667C17.2117 1.66667 18.3333 2.78833 18.3333 4.16667V15.8333C18.3333 17.2117 17.2117 18.3333 15.8333 18.3333H4.16667C2.78833 18.3333 1.66667 17.2117 1.66667 15.8333V4.16667C1.66667 2.78833 2.78833 1.66667 4.16667 1.66667H15.8333ZM16.6667 14.1667C16.6667 13.7058 16.2942 13.3333 15.8333 13.3333H10C9.54 13.3333 9.16667 13.7058 9.16667 14.1667C9.16667 14.6275 9.54 15 10 15H15.8333C16.2942 15 16.6667 14.6275 16.6667 14.1667Z" fill="#CAE6D8"/>
</svg>
