<svg width="20" height="20" viewBox="0 0 20 20" fill="none" xmlns="http://www.w3.org/2000/svg">
<path d="M19.7109 7.95312C19.5781 7.3125 19.3828 6.6875 19.125 6.07812C18.875 5.48437 18.5625 4.92188 18.2031 4.39063C17.8438 3.85938 17.4375 3.375 16.9922 2.92187C16.5391 2.46875 16.0391 2.05469 15.5234 1.71094C14.9922 1.35156 14.4141 1.03906 13.8359 0.789063C13.2344 0.53125 12.6094 0.335938 11.9609 0.203125C11.3047 0.070313 10.6328 0 9.95312 0C9.27344 0 8.60156 0.070313 7.94531 0.203125C7.30469 0.335938 6.67969 0.53125 6.07813 0.789063C5.48438 1.03906 4.92187 1.35156 4.39062 1.71094C3.85937 2.07031 3.36719 2.47656 2.92187 2.92187C2.47656 3.36719 2.0625 3.875 1.71094 4.39063C1.35156 4.92188 1.03906 5.48437 0.789063 6.07812C0.53125 6.67969 0.335938 7.30469 0.203125 7.95312C0.070313 8.60937 0 9.28125 0 9.96094C0 10.6406 0.070313 11.3125 0.203125 11.9688C0.335938 12.6094 0.53125 13.2344 0.789063 13.8359C1.03906 14.4297 1.35156 14.9922 1.71094 15.5312C2.07031 16.0625 2.47656 16.5469 2.92187 17C3.375 17.4531 3.875 17.8594 4.39062 18.2109C4.92187 18.5703 5.5 18.8828 6.07813 19.1328C6.67969 19.3906 7.30469 19.5859 7.94531 19.7188C8.60156 19.8516 9.27344 19.9219 9.95312 19.9219C10.6328 19.9219 11.2969 19.8516 11.9609 19.7188C12.6016 19.5859 13.2266 19.3906 13.8359 19.1328C14.4297 18.8828 14.9922 18.5703 15.5234 18.2109C16.0547 17.8516 16.5469 17.4453 16.9922 17C17.4453 16.5469 17.8516 16.0469 18.2031 15.5312C18.5625 15 18.875 14.4297 19.125 13.8359C19.3828 13.2344 19.5781 12.6094 19.7109 11.9688C19.8438 11.3125 19.9141 10.6406 19.9141 9.96094C19.9141 9.28125 19.8438 8.60937 19.7109 7.95312ZM9.95312 1.45313C12.1094 1.45313 14.0703 2.25781 15.5703 3.57812C15.5469 3.60937 14.3437 5.45313 11.125 6.65625C9.67187 3.98438 8.07031 1.85938 7.9375 1.6875C8.58594 1.53906 9.25781 1.45313 9.95312 1.45313ZM7.89844 1.70312C7.90625 1.69531 7.89844 1.69531 7.89844 1.70312ZM6.32031 2.26562C6.4375 2.41406 8.00781 4.55469 9.48437 7.17187C5.39844 8.25 1.85156 8.21094 1.63281 8.20312C2.17187 5.57031 3.94531 3.38281 6.32031 2.26562ZM3.61719 15.6406C2.26563 14.1406 1.4375 12.1484 1.4375 9.96094C1.4375 9.86719 1.44531 9.78125 1.44531 9.69531C1.59375 9.69531 5.79688 9.79688 10.1797 8.48438C10.4219 8.96094 10.6562 9.45313 10.875 9.92969C10.7656 9.96094 10.6484 9.99219 10.5391 10.0312C5.94531 11.5156 3.61719 15.6406 3.61719 15.6406ZM9.95312 18.4687C7.96875 18.4687 6.16406 17.7891 4.71875 16.6641C4.75 16.6016 6.39844 13.0937 11.3984 11.3516C11.4141 11.3437 11.4375 11.3359 11.4531 11.3359C12.6484 14.4453 13.1406 17.0469 13.2656 17.7969C12.25 18.2266 11.125 18.4687 9.95312 18.4687ZM14.7031 17.0156C14.6172 16.5 14.1641 14.0078 13.0469 10.9375C15.7969 10.5 18.1797 11.25 18.3516 11.3125C17.9766 13.6797 16.6094 15.7266 14.7031 17.0156ZM12.5312 9.59375C12.4687 9.44531 12.4063 9.30469 12.3438 9.15625C12.1641 8.73438 11.9766 8.32812 11.7734 7.92187C15.1328 6.55469 16.5 4.57812 16.5156 4.55469C17.7031 6.00781 18.4297 7.85937 18.4531 9.875C18.3359 9.85156 15.4531 9.22656 12.5312 9.59375Z" fill="#CAE6D8"/>
</svg>
