<svg width="1488" height="409" viewBox="0 0 1488 409" fill="none" xmlns="http://www.w3.org/2000/svg">
<path d="M33.1193 3.91218L36.4625 5.02899C29.2188 32.3912 44.8207 70.3632 71.0097 70.3632C125.616 70.3632 169.636 -0.555124 247.646 0.00328039C308.939 0.00328039 322.312 54.7276 322.312 80.973V120.62H237.616L237.059 86.5571C237.059 47.4683 216.442 38.5337 193.039 38.5337C115.029 38.5337 85.4972 149.099 43.7063 149.099C20.3034 149.099 14.1741 116.711 14.1741 91.5828C14.1741 54.1692 23.6467 19.5477 33.1193 3.91218ZM92.1837 203.265L145.119 85.9987H218.114C196.94 126.763 179.109 166.41 162.95 203.265H169.079C234.273 203.265 286.094 219.459 286.094 304.896L202.512 303.779C203.069 225.602 200.84 212.2 169.636 212.2H158.492C105.557 331.141 67.6664 418.812 -7 418.812L-6.44279 327.232V203.265H92.1837ZM-1.98509 257.431V327.232C26.9899 325.557 52.6217 292.052 68.7808 255.197L87.7261 212.758C15.8457 215.55 -1.98509 224.485 -1.98509 257.431Z" fill="#CAE6D8"/>
<path d="M302.996 416.02L408.402 80.973H490.358L595.764 416.02H538.186L442.531 115.408H455.068L360.574 416.02H302.996ZM361.735 343.426V291.075H537.257V343.426H361.735Z" fill="#CAE6D8"/>
<path d="M751.49 423C718.057 423 689.422 415.71 665.586 401.129C641.75 386.393 623.408 365.918 610.561 339.704C597.869 313.489 591.523 283.087 591.523 248.496C591.523 213.906 597.869 183.504 610.561 157.289C623.408 131.075 641.75 110.677 665.586 96.0966C689.422 81.3607 718.057 73.9928 751.49 73.9928C790.03 73.9928 822.147 83.6875 847.841 103.077C873.535 122.311 891.567 148.293 901.937 181.022L845.519 196.611C839.018 174.74 827.952 157.677 812.319 145.423C796.686 133.014 776.409 126.809 751.49 126.809C729.046 126.809 710.318 131.85 695.304 141.933C680.445 152.015 669.224 166.208 661.639 184.512C654.21 202.66 650.418 223.988 650.263 248.496C650.263 273.005 653.978 294.41 661.407 312.714C668.991 330.862 680.29 344.978 695.304 355.06C710.318 365.142 729.046 370.184 751.49 370.184C776.409 370.184 796.686 363.979 812.319 351.57C827.952 339.161 839.018 322.098 845.519 300.382L901.937 315.971C891.567 348.7 873.535 374.759 847.841 394.149C822.147 413.383 790.03 423 751.49 423Z" fill="#CAE6D8"/>
<path d="M938.983 416.02V80.973H994.936V416.02H938.983Z" fill="#CAE6D8"/>
<path d="M1050.55 416.02V80.973H1106.51V363.436H1254.17V416.02H1050.55Z" fill="#CAE6D8"/>
<path d="M1163.48 416.02V80.973H1379.4V133.557H1219.44V216.155H1320.83V268.739H1219.44V363.436H1379.4V416.02H1163.48Z" fill="#CAE6D8"/>
<path d="M1435.99 363.901H1488V416.02H1435.99V363.901Z" fill="#CAE6D8"/>
</svg>
