<svg width="14" height="20" viewBox="0 0 14 20" fill="none" xmlns="http://www.w3.org/2000/svg">
<path d="M12.2899 6.86272C13.3127 6.19676 13.9918 5.04349 13.9918 3.73592C13.9918 1.67304 12.2981 0 10.2279 0H3.76388C1.68556 0 0 1.68116 0 3.73592C0 5.04349 0.679135 6.19676 1.70193 6.86272C0.679135 7.52869 0 8.68195 0 9.98953C0 11.2971 0.679135 12.4504 1.70193 13.1163C0.679135 13.7823 0 14.9356 0 16.2431C0 18.306 1.70193 19.9791 3.78843 19.9791C5.89947 19.9791 7.61777 18.2816 7.61777 16.2025V12.7509C8.28872 13.3519 9.1806 13.7254 10.1543 13.7254H10.2361C12.3144 13.7254 14 12.0443 14 9.98953C13.9918 8.68195 13.3127 7.52869 12.2899 6.86272ZM6.38223 16.2025C6.38223 17.6076 5.22034 18.7608 3.78843 18.7608C2.38106 18.7608 1.23553 17.6319 1.23553 16.2431C1.23553 14.8543 2.37288 13.7336 3.76388 13.7254H6.38223V16.2025ZM6.38223 12.5072H3.76388C2.3647 12.5072 1.23553 11.3783 1.23553 9.98953C1.23553 8.60074 2.37288 7.47184 3.77206 7.47184H6.39041V12.5072H6.38223ZM6.38223 6.25361H3.76388C2.3647 6.25361 1.22735 5.12471 1.22735 3.73592C1.22735 2.34713 2.3647 1.21823 3.76388 1.21823H6.38223V6.25361ZM7.60958 1.21823H10.2279C11.6271 1.21823 12.7645 2.34713 12.7645 3.73592C12.7645 5.12471 11.6271 6.25361 10.2279 6.25361H7.60958V1.21823ZM10.2279 12.5072H10.1461C8.74693 12.5072 7.60958 11.3783 7.60958 9.98953C7.60958 8.60074 8.74693 7.47184 10.1461 7.47184H10.2279C11.6271 7.47184 12.7645 8.60074 12.7645 9.98953C12.7645 11.3783 11.6271 12.5072 10.2279 12.5072Z" fill="#CAE6D8"/>
</svg>
