<svg width="38" height="20" viewBox="0 0 38 20" fill="none" xmlns="http://www.w3.org/2000/svg">
<g clip-path="url(#clip0_188_399)">
<path d="M11.0661 9.53866C11.0661 9.53866 11.0661 9.54248 11.0661 9.54478L10.5664 11.7221C10.5395 11.8452 10.4171 11.9355 10.2754 11.9355H9.67256C9.62791 11.9355 9.58783 11.9653 9.57551 12.0082C9.01887 13.9047 8.26509 15.2083 7.26959 15.9909C6.42261 16.6573 5.37859 16.9679 3.98424 16.9679C2.73077 16.9679 1.88615 16.5631 1.16934 15.7645C0.222311 14.7087 -0.169588 12.9805 0.0675532 10.8981C0.495639 6.98884 2.51442 3.04436 6.4034 3.04436C7.58603 3.03365 8.51456 3.40009 9.16056 4.13146C9.84346 4.9049 10.1907 6.07004 10.1922 7.59474C10.1899 7.73321 10.0752 7.8449 9.9374 7.8449H7.08862C6.98779 7.8449 6.8977 7.75387 6.89923 7.65365C6.87611 6.59944 6.5643 6.08534 5.94527 6.08534C4.8535 6.08534 4.20906 7.57408 3.8672 8.39955C3.38984 9.55242 3.14731 10.8041 3.19504 12.051C3.21737 12.6317 3.31054 13.448 3.85951 13.7861C4.34611 14.086 5.04059 13.8871 5.46098 13.5551C5.88136 13.223 6.21937 12.6485 6.3618 12.1245C6.3818 12.0518 6.38339 11.9952 6.36412 11.9699C6.34411 11.9439 6.28866 11.9378 6.24633 11.9378H5.51487C5.43634 11.9378 5.35857 11.9019 5.31161 11.8437C5.27234 11.7947 5.25694 11.7343 5.2708 11.6747L5.77126 9.49351C5.7959 9.38187 5.89676 9.29769 6.02073 9.28242V9.27702H10.8213C10.8329 9.27702 10.8444 9.27702 10.8552 9.27933C10.9799 9.29539 11.0677 9.41169 11.0654 9.53866H11.0661Z" fill="#CAE6D8"/>
<path d="M19.3311 7.03628C19.3288 7.17246 19.214 7.28415 19.0762 7.28415H16.4523C16.2806 7.28415 16.1366 7.14415 16.1366 6.97355C16.1366 6.2047 15.8717 5.8306 15.3297 5.8306C14.7877 5.8306 14.4381 6.16492 14.4281 6.74864C14.4166 7.39967 14.783 7.99104 15.8271 9.00776C17.2014 10.3022 17.7519 11.449 17.7257 12.9645C17.6826 15.4156 16.0226 17 13.4973 17C12.2076 17 11.2221 16.6535 10.5669 15.9703C9.90165 15.2764 9.59674 14.2581 9.66066 12.9438C9.66371 12.8076 9.77765 12.6967 9.9155 12.6967H12.6295C12.7035 12.6967 12.7766 12.7327 12.8259 12.7939C12.8682 12.8467 12.8859 12.9117 12.8752 12.9729C12.8451 13.4472 12.9275 13.8014 13.113 13.9973C13.2324 14.1242 13.398 14.1885 13.605 14.1885C14.1063 14.1885 14.4004 13.8328 14.4111 13.2131C14.4204 12.6776 14.2518 12.2079 13.3325 11.2585C12.1452 10.0933 11.0804 8.88995 11.1135 6.99727C11.1328 5.90022 11.567 4.8965 12.3362 4.17125C13.1492 3.4047 14.2618 3 15.553 3C16.8465 3.00918 17.8266 3.37945 18.4664 4.10087C19.0724 4.78481 19.3642 5.77246 19.3319 7.03628H19.3311Z" fill="#CAE6D8"/>
<path d="M27.4649 16.5387L27.4818 3.50339C27.4841 3.36645 27.374 3.25476 27.2362 3.25476H23.1748C23.0384 3.25476 22.9784 3.37258 22.9391 3.45061L17.0592 16.4592V16.4615C17.0592 16.4615 17.0576 16.4637 17.0568 16.4645C16.9914 16.6244 17.1153 16.7958 17.2878 16.7958H20.1265C20.2798 16.7958 20.3814 16.7491 20.4315 16.6519L20.995 15.2917C21.0643 15.1104 21.0775 15.0936 21.2745 15.0936H23.987C24.1756 15.0936 24.1795 15.0974 24.1764 15.2825L24.1156 16.5471C24.1133 16.6841 24.2234 16.7958 24.3612 16.7958H27.2292C27.3024 16.7958 27.3709 16.7652 27.4163 16.7108C27.4571 16.6626 27.4741 16.6015 27.4649 16.5387ZM22.4402 12.1865C22.414 12.1865 22.3932 12.1857 22.3763 12.1842C22.334 12.1804 22.3055 12.1398 22.3163 12.0985C22.3216 12.0793 22.3294 12.0541 22.3409 12.0227L24.3751 6.96973C24.3928 6.92001 24.4151 6.87104 24.4382 6.82361C24.4713 6.75553 24.5114 6.75093 24.5237 6.80143C24.5345 6.8435 24.2904 11.9898 24.2904 11.9898C24.2712 12.1826 24.2627 12.1903 24.0733 12.2064L22.4425 12.1872H22.4387L22.4402 12.1865Z" fill="#CAE6D8"/>
<path d="M33.2493 3.25477H31.0934C30.9795 3.25477 30.8517 3.3152 30.8216 3.45138C30.8216 3.45138 27.8212 16.5303 27.8212 16.5318C27.8081 16.5922 27.822 16.6519 27.862 16.7016C27.9089 16.7598 27.9867 16.7958 28.0653 16.7958H30.76C30.9048 16.7958 31.0041 16.7246 31.031 16.6007C31.031 16.6007 31.3575 15.1226 31.3583 15.1181C31.3814 15.0026 31.3413 14.913 31.2382 14.8587C31.1897 14.8335 31.1411 14.8082 31.0934 14.783L30.6261 14.5389L30.161 14.2956C30.101 14.2642 30.0409 14.2329 29.9816 14.2015C29.9516 14.1862 29.9331 14.1556 29.9339 14.122C29.9347 14.0722 29.9762 14.0317 30.0263 14.0317L31.503 14.0386C31.945 14.0409 32.3869 14.0095 32.8212 13.9292C35.8794 13.3623 37.9104 10.9027 37.969 7.55652C38.019 4.70067 36.4314 3.25323 33.2516 3.25323L33.2493 3.25477ZM32.5155 11.0389H32.4578C32.3284 11.0389 32.3053 11.0244 32.3014 11.0198C32.2991 11.0167 33.153 7.2528 33.1538 7.24744C33.1753 7.13881 33.1746 7.07607 33.1076 7.03935C33.0221 6.99192 31.7756 6.3317 31.7756 6.3317C31.7455 6.31564 31.7278 6.28504 31.7286 6.25138C31.7294 6.20241 31.7702 6.16187 31.8203 6.16187H33.7913C34.4049 6.181 34.7468 6.73181 34.7306 7.6728C34.7022 9.30231 33.9306 10.9815 32.5155 11.0389Z" fill="#CAE6D8"/>
<path d="M35.443 16.7958C35.8865 16.7958 36.2337 16.4568 36.2337 16.0001C36.2337 15.5434 35.8865 15.2045 35.443 15.2045C34.9995 15.2045 34.6484 15.5434 34.6484 16.0001C34.6484 16.4568 34.9987 16.7958 35.443 16.7958ZM34.837 15.997C34.837 15.6092 35.0688 15.3552 35.443 15.3552C35.8172 15.3552 36.0451 15.6084 36.0451 15.997C36.0451 16.3857 35.8172 16.6412 35.443 16.6412C35.0688 16.6412 34.837 16.388 34.837 15.997ZM35.0958 16.4239H35.3475V16.1179H35.4207C35.6093 16.1179 35.527 16.388 35.5731 16.4239H35.8341V16.4109C35.7848 16.3979 35.8641 16.059 35.6455 16.0231V16.0192C35.7518 15.997 35.8203 15.9205 35.8203 15.8058C35.8203 15.6413 35.7009 15.5525 35.5085 15.5525H35.0943V16.4239H35.0958ZM35.3475 15.9336V15.7293H35.4338C35.52 15.7293 35.5693 15.7561 35.5693 15.831C35.5693 15.8999 35.52 15.9328 35.4338 15.9328H35.3475V15.9336Z" fill="#CAE6D8"/>
</g>
<defs>
<clipPath id="clip0_188_399">
<rect width="38" height="14" fill="white" transform="translate(0 3)"/>
</clipPath>
</defs>
</svg>
