<svg width="14" height="10" viewBox="0 0 14 10" fill="none" xmlns="http://www.w3.org/2000/svg">
<path d="M0 0.555556C0 0.25 0.2625 0 0.583333 0H10.5C10.8208 0 11.0833 0.25 11.0833 0.555556C11.0833 0.861111 10.8208 1.11111 10.5 1.11111H0.583333C0.2625 1.11111 0 0.861111 0 0.555556ZM10.5 8.88889H0.583333C0.2625 8.88889 0 9.13889 0 9.44444C0 9.75 0.2625 10 0.583333 10H10.5C10.8208 10 11.0833 9.75 11.0833 9.44444C11.0833 9.13889 10.8208 8.88889 10.5 8.88889ZM13.4167 4.44444H3.5C3.17917 4.44444 2.91667 4.69444 2.91667 5C2.91667 5.30556 3.17917 5.55556 3.5 5.55556H13.4167C13.7375 5.55556 14 5.30556 14 5C14 4.69444 13.7375 4.44444 13.4167 4.44444Z" fill="#1E1E1E"/>
</svg>
