<svg width="20" height="20" viewBox="0 0 20 20" fill="currentColor" xmlns="http://www.w3.org/2000/svg">
<path d="M11.8566 13.5391C9.42564 12.5098 7.49247 10.5725 6.46861 8.13951L9.30748 5.29611L4.08062 0.0659509L1.43296 2.71234C0.973729 3.17411 0.610643 3.72235 0.364707 4.32534C0.118771 4.92833 -0.00513352 5.57409 0.000162902 6.22527C0.000162902 12.2761 7.72523 19.9998 13.777 19.9998C14.4282 20.0053 15.074 19.8815 15.677 19.6356C16.28 19.3897 16.8282 19.0266 17.2897 18.5673L19.9374 15.9201L14.7063 10.6899L11.8566 13.5391ZM16.1099 17.3868C15.8028 17.6906 15.4385 17.9303 15.038 18.0923C14.6376 18.2542 14.209 18.3351 13.777 18.3302C8.57271 18.3302 1.67009 11.4287 1.67009 6.22527C1.66517 5.79352 1.74604 5.3651 1.908 4.96485C2.06996 4.56459 2.3098 4.20047 2.61359 3.89361L4.08062 2.42683L6.95038 5.29611L4.49977 7.74631L4.70434 8.25889C5.30655 9.86952 6.24798 11.3319 7.46485 12.547C8.68171 13.7621 10.1456 14.7014 11.7573 15.3014L12.2632 15.4943L14.7063 13.0508L17.5761 15.9201L16.1099 17.3868ZM12.5246 5.41465V1.63375H14.1945V4.64829C14.7464 4.0948 15.406 3.43112 16.064 2.76994C17.2045 1.62289 18.3284 0.494214 18.8194 0L20 1.18044C19.5057 1.67465 18.3835 2.80166 17.2446 3.94704C16.5975 4.60154 15.9479 5.25687 15.396 5.80785H18.3693V7.4775H14.612C14.0618 7.48016 13.5329 7.26446 13.1416 6.87772C12.7502 6.49097 12.5283 5.96479 12.5246 5.41465Z" fill="#1E1E1E"/>
</svg>
