<svg width="21" height="19" viewBox="0 0 21 19" fill="none" xmlns="http://www.w3.org/2000/svg">
<path d="M20.25 9.15746C20.25 7.83255 18.5908 6.57695 16.047 5.79831C16.634 3.20556 16.3731 1.14278 15.2235 0.482368C14.9585 0.327456 14.6487 0.254077 14.3103 0.254077V1.16317C14.4979 1.16317 14.6487 1.19986 14.7751 1.26916C15.3295 1.58714 15.57 2.7979 15.3825 4.35518C15.3376 4.73838 15.2643 5.14197 15.1746 5.55371C14.3756 5.35803 13.5032 5.20719 12.5859 5.10936C12.0356 4.35518 11.4648 3.6703 10.89 3.07104C12.219 1.83581 13.4665 1.15909 14.3144 1.15909V0.25C13.1933 0.25 11.7257 1.04902 10.2418 2.43508C8.75795 1.05718 7.29036 0.266307 6.16928 0.266307V1.1754C7.01315 1.1754 8.26468 1.84804 9.59366 3.07511C9.02293 3.67438 8.4522 4.35518 7.91001 5.10936C6.98869 5.20719 6.11629 5.35803 5.31726 5.55779C5.2235 5.15012 5.1542 4.75469 5.10528 4.37556C4.91368 2.81828 5.15012 1.60752 5.70047 1.28547C5.82277 1.21209 5.98176 1.17947 6.16928 1.17947V0.270383C5.82684 0.270383 5.51702 0.343763 5.24796 0.498675C4.10243 1.15909 3.8456 3.21779 4.43671 5.80238C1.90104 6.5851 0.25 7.83663 0.25 9.15746C0.25 10.4824 1.90919 11.738 4.45302 12.5166C3.86598 15.1094 4.12689 17.1721 5.2765 17.8326C5.54148 17.9875 5.8513 18.0608 6.19374 18.0608C7.31482 18.0608 8.78241 17.2618 10.2663 15.8758C11.7502 17.2537 13.2178 18.0445 14.3389 18.0445C14.6813 18.0445 14.9911 17.9712 15.2602 17.8162C16.4057 17.1558 16.6626 15.0971 16.0714 12.5125C18.599 11.7339 20.25 10.4783 20.25 9.15746ZM14.9422 6.43834C14.7914 6.96423 14.6039 7.50642 14.3919 8.04861C14.2247 7.72248 14.0494 7.39635 13.8578 7.07022C13.6703 6.74409 13.4705 6.42611 13.2708 6.11629C13.8497 6.2019 14.4082 6.30789 14.9422 6.43834ZM13.0751 10.78C12.7571 11.3303 12.431 11.8521 12.0926 12.3372C11.4852 12.3902 10.8697 12.4188 10.25 12.4188C9.63443 12.4188 9.01886 12.3902 8.41551 12.3413C8.07715 11.8562 7.74694 11.3385 7.42896 10.7922C7.11914 10.2582 6.83785 9.71596 6.58102 9.16969C6.83378 8.62342 7.11914 8.07715 7.42489 7.54311C7.74287 6.99276 8.069 6.47095 8.40736 5.98583C9.01478 5.93284 9.63035 5.9043 10.25 5.9043C10.8656 5.9043 11.4811 5.93284 12.0845 5.98176C12.4228 6.46688 12.7531 6.98461 13.071 7.53088C13.3809 8.06492 13.6621 8.60711 13.919 9.15338C13.6621 9.69965 13.3809 10.2459 13.0751 10.78ZM14.3919 10.25C14.612 10.7963 14.7995 11.3425 14.9544 11.8725C14.4204 12.003 13.8578 12.113 13.2749 12.1986C13.4746 11.8847 13.6744 11.5627 13.8619 11.2325C14.0494 10.9063 14.2247 10.5761 14.3919 10.25ZM10.2582 14.5998C9.87903 14.2084 9.4999 13.7722 9.12485 13.2953C9.49175 13.3116 9.8668 13.3238 10.2459 13.3238C10.6291 13.3238 11.0083 13.3156 11.3792 13.2953C11.0123 13.7722 10.6332 14.2084 10.2582 14.5998ZM7.22513 12.1986C6.64625 12.113 6.08775 12.007 5.55371 11.8766C5.70455 11.3507 5.89207 10.8085 6.10406 10.2663C6.2712 10.5924 6.44649 10.9186 6.6381 11.2447C6.8297 11.5708 7.02538 11.8888 7.22513 12.1986ZM10.2378 3.71514C10.6169 4.1065 10.996 4.5427 11.3711 5.01967C11.0042 5.00336 10.6291 4.99113 10.25 4.99113C9.8668 4.99113 9.48767 4.99929 9.11669 5.01967C9.48359 4.5427 9.86272 4.1065 10.2378 3.71514ZM7.22106 6.11629C7.0213 6.43019 6.82155 6.75224 6.63402 7.08245C6.44649 7.40858 6.2712 7.73471 6.10406 8.06084C5.88392 7.51457 5.69639 6.9683 5.54148 6.43834C6.07552 6.31196 6.6381 6.2019 7.22106 6.11629ZM3.5317 11.2202C2.08857 10.6047 1.15501 9.79749 1.15501 9.15746C1.15501 8.51743 2.08857 7.70618 3.5317 7.09468C3.88229 6.94384 4.26549 6.80931 4.66093 6.68294C4.89329 7.48196 5.19904 8.3136 5.57817 9.16561C5.20312 10.0136 4.90145 10.8411 4.67316 11.6361C4.26957 11.5097 3.88636 11.3711 3.5317 11.2202ZM5.72493 17.0458C5.17051 16.7278 4.92998 15.517 5.11751 13.9597C5.16235 13.5765 5.23573 13.173 5.32542 12.7612C6.12444 12.9569 6.99684 13.1077 7.91409 13.2056C8.46443 13.9597 9.03516 14.6446 9.60997 15.2439C8.28098 16.4791 7.03353 17.1558 6.18559 17.1558C6.00214 17.1518 5.84723 17.1151 5.72493 17.0458ZM15.3947 13.9394C15.5863 15.4966 15.3499 16.7074 14.7995 17.0295C14.6772 17.1028 14.5182 17.1354 14.3307 17.1354C13.4869 17.1354 12.2353 16.4628 10.9063 15.2357C11.4771 14.6365 12.0478 13.9557 12.59 13.2015C13.5113 13.1036 14.3837 12.9528 15.1827 12.7531C15.2765 13.1648 15.3499 13.5602 15.3947 13.9394ZM16.9642 11.2202C16.6136 11.3711 16.2304 11.5056 15.835 11.632C15.6026 10.833 15.2969 10.0013 14.9178 9.14931C15.2928 8.30136 15.5945 7.47381 15.8228 6.67886C16.2264 6.80524 16.6096 6.94384 16.9683 7.09468C18.4114 7.71025 19.345 8.51743 19.345 9.15746C19.3409 9.79749 18.4074 10.6087 16.9642 11.2202Z" fill="#CAE6D8" stroke="#CAE6D8" stroke-width="0.5"/>
<path d="M10.2458 11.0205C11.2748 11.0205 12.1089 10.1864 12.1089 9.15744C12.1089 8.12852 11.2748 7.29442 10.2458 7.29442C9.21692 7.29442 8.38281 8.12852 8.38281 9.15744C8.38281 10.1864 9.21692 11.0205 10.2458 11.0205Z" fill="#CAE6D8" stroke="#CAE6D8" stroke-width="0.5"/>
</svg>
