<svg width="20" height="20" viewBox="0 0 20 20" fill="none" xmlns="http://www.w3.org/2000/svg">
<path d="M11.7076 4.67003L0.688224 15.6913C0.235458 16.1768 -0.0111456 16.8192 0.000387006 17.4829C0.0119196 18.1467 0.280687 18.78 0.750045 19.2495C1.2194 19.719 1.85269 19.9879 2.51644 19.9996C3.18018 20.0113 3.82254 19.7648 4.30814 19.3122L15.3301 8.29253L11.7076 4.67003ZM12.9658 8.29253L10.8039 10.4545L9.5499 9.19627L11.7118 7.03431L12.9658 8.29253ZM3.12602 18.1317C2.95702 18.2928 2.7325 18.3827 2.49902 18.3827C2.26554 18.3827 2.04101 18.2928 1.87201 18.1317C1.70599 17.9653 1.61276 17.7398 1.61276 17.5047C1.61276 17.2696 1.70599 17.0441 1.87201 16.8777L8.36695 10.3818L9.62514 11.64L3.12602 18.1317ZM17.7704 12.2294L20 13.3446L17.7704 14.4632L16.656 16.6887L15.5416 14.4632L13.3119 13.3446L15.5416 12.2294L16.656 10.0005L17.7704 12.2294ZM5.50948 4.45852L3.27985 3.3441L5.50948 2.22968L6.62388 0L7.73828 2.22968L9.96791 3.3441L7.73828 4.45852L6.62388 6.6882L5.50948 4.45852ZM16.0984 3.90173L14.1479 2.92609L16.0984 1.95045L17.074 0L18.0496 1.95045L20 2.92609L18.0496 3.90173L17.074 5.85217L16.0984 3.90173Z" fill="#CAE6D8"/>
</svg>
