<svg width="20" height="20" viewBox="0 0 20 20" fill="none" xmlns="http://www.w3.org/2000/svg">
<path d="M16.54 11.9133L15.7258 11.1008C15.8675 10.3917 15.8675 9.60833 15.7258 8.89917L16.5408 8.08917C17.8108 6.87167 17.8117 4.67917 16.5408 3.46167C15.3242 2.1925 13.1308 2.1925 11.915 3.46167L11.1008 4.27333C10.3908 4.13083 9.60833 4.13083 8.89833 4.27333L8.08417 3.4625C6.86667 2.1925 4.67583 2.1925 3.45667 3.46167C2.18667 4.68083 2.18833 6.87167 3.46 8.09083L4.27333 8.89917C4.13167 9.60833 4.13167 10.3908 4.27333 11.1L3.45833 11.9142C2.18833 13.1317 2.1875 15.3233 3.45667 16.5417C4.67583 17.8117 6.86583 17.8108 8.085 16.5408L8.8975 15.7258C9.60667 15.8675 10.3892 15.8675 11.0992 15.7258L11.9133 16.54C13.1308 17.8108 15.3225 17.8117 16.5417 16.5417C17.16 15.9233 17.4992 15.1017 17.4992 14.2275C17.4992 13.3533 17.1583 12.5317 16.5392 11.9142L16.54 11.9133ZM13.0942 4.64083C13.6908 4.0175 14.7658 4.0175 15.3642 4.64083C15.9858 5.23833 15.9858 6.31333 15.3642 6.91L15.0992 7.17417C14.57 6.2225 13.7817 5.435 12.8308 4.90417L13.0942 4.64167V4.64083ZM4.63833 6.91C4.015 6.31333 4.01417 5.23833 4.63667 4.64083C5.2625 4.01583 6.28167 4.01583 6.90917 4.6425L7.17083 4.9025C6.22 5.4325 5.4325 6.22 4.9025 7.17167L4.63833 6.91ZM6.9075 15.3625C6.31 15.9858 5.235 15.9858 4.63667 15.3625C4.01417 14.7642 4.015 13.69 4.63833 13.0925L4.90333 12.8275C5.43333 13.7783 6.22083 14.5667 7.17167 15.0967L6.9075 15.3625ZM5.83417 10C5.83417 7.7025 7.70333 5.83333 10.0008 5.83333C12.2983 5.83333 14.1675 7.7025 14.1675 10C14.1675 12.2975 12.2983 14.1667 10.0008 14.1667C7.70333 14.1667 5.83417 12.2975 5.83417 10ZM15.3642 15.3633C14.7667 15.9858 13.6925 15.9858 13.0942 15.3625L12.8292 15.0975C13.78 14.5675 14.5675 13.78 15.0975 12.8292L15.3625 13.0933C15.9867 13.6908 15.9867 14.7658 15.3625 15.3633H15.3642ZM16.6675 1.66667C16.6675 0.745833 17.4133 0 18.3342 0C19.255 0 20.0008 0.745833 20.0008 1.66667C20.0008 2.5875 19.255 3.33333 18.3342 3.33333C17.4133 3.33333 16.6675 2.5875 16.6675 1.66667ZM0 1.66667C0 0.745833 0.745833 0 1.66667 0C2.5875 0 3.33333 0.745833 3.33333 1.66667C3.33333 2.5875 2.5875 3.33333 1.66667 3.33333C0.745833 3.33333 0 2.5875 0 1.66667ZM20 18.3333C20 19.2542 19.2542 20 18.3333 20C17.4125 20 16.6667 19.2542 16.6667 18.3333C16.6667 17.4125 17.4125 16.6667 18.3333 16.6667C19.2542 16.6667 20 17.4125 20 18.3333ZM3.33333 18.3333C3.33333 19.2542 2.5875 20 1.66667 20C0.745833 20 0 19.2542 0 18.3333C0 17.4125 0.745833 16.6667 1.66667 16.6667C2.5875 16.6667 3.33333 17.4125 3.33333 18.3333Z" fill="#1E1E1E"/>
</svg>
