<svg width="20" height="20" viewBox="0 0 20 20" fill="none" xmlns="http://www.w3.org/2000/svg">
<path d="M19.5107 13.4078C19.5107 13.4078 12.2327 10.0996 12.2069 10.0912C11.6003 9.88459 10.942 10.0371 10.4887 10.4904C10.0353 10.9437 9.88285 11.602 10.1203 12.2828L13.4068 19.5117C13.5393 19.8042 13.8285 19.9942 14.1501 20H14.166C14.481 20 14.7701 19.8217 14.9118 19.5392L16.4542 16.4543L19.5391 14.9119C19.8265 14.7677 20.0057 14.4727 19.9999 14.1511C19.994 13.8303 19.804 13.5411 19.5116 13.4078H19.5107ZM15.4601 15.0877C15.2993 15.1685 15.1676 15.2994 15.0876 15.4602L14.201 17.2334L11.6644 11.6703L17.2317 14.2019L15.4609 15.0869L15.4601 15.0877ZM10.7595 18.2992C10.6162 18.3117 10.472 18.3209 10.3262 18.3267C9.76953 17.7759 8.31793 16.2285 7.30631 14.1669H7.91628C8.37626 14.1669 8.74957 13.7944 8.74957 13.3336C8.74957 12.8728 8.37626 12.5003 7.91628 12.5003H6.64134C6.39886 11.707 6.2497 10.867 6.2497 10.0004C6.2497 9.13379 6.39969 8.29465 6.64301 7.50052H13.3569C13.4552 7.82301 13.5385 8.15299 13.6027 8.48965C13.6893 8.94213 14.1268 9.24045 14.5768 9.15212C15.0284 9.06629 15.3251 8.62964 15.2393 8.17799C15.1959 7.94884 15.1443 7.72301 15.0868 7.50052H17.9141C17.925 7.50052 17.9366 7.50052 17.9475 7.50052C18.1966 8.29049 18.3308 9.13045 18.3308 10.0012C18.3308 10.2571 18.3191 10.5096 18.2966 10.7596C18.2558 11.2179 18.5933 11.6228 19.0516 11.6645C19.5116 11.7095 19.9157 11.3679 19.9565 10.9095C19.9832 10.6104 19.9974 10.3071 19.9974 10.0012C19.999 4.48565 15.5134 0 9.99951 0C4.48562 0 0 4.48565 0 9.99958C0 15.5135 4.48561 19.9992 9.99868 19.9992C10.3045 19.9992 10.607 19.985 10.9053 19.9583C11.3636 19.9175 11.7028 19.5134 11.6619 19.0542C11.6211 18.5967 11.2178 18.2584 10.7586 18.2984L10.7595 18.2992ZM4.90976 12.5003H2.08323C2.0724 12.5003 2.06157 12.5003 2.0499 12.5003C1.80075 11.7103 1.66659 10.8704 1.66659 9.99958C1.66659 9.12879 1.80075 8.28882 2.0499 7.49885C2.06073 7.49885 2.07157 7.49885 2.08323 7.49885H4.90976C4.7056 8.29465 4.58311 9.13129 4.58311 9.99875C4.58311 10.8662 4.70477 11.7028 4.90976 12.4986V12.5003ZM7.31048 5.83392C8.16127 4.10316 9.32288 2.73072 10.0012 2.01075C10.6803 2.72989 11.8419 4.09983 12.6927 5.83392H7.31048ZM17.2142 5.83392H14.5243C13.8652 4.26232 12.951 2.92738 12.1644 1.95325C14.3135 2.53239 16.1217 3.95067 17.2142 5.83392ZM7.83295 1.95325C7.04632 2.92738 6.13137 4.26232 5.47307 5.83309H2.78486C3.87648 3.94984 5.68389 2.53156 7.83295 1.95325ZM2.78486 14.1661H5.47307C6.13137 15.7377 7.04632 17.0718 7.83295 18.0459C5.68472 17.4668 3.87731 16.0485 2.78486 14.1661Z" fill="#CAE6D8"/>
</svg>
